<?xml version="1.0" standalone="no"?>
<!DOCTYPE svg PUBLIC "-//W3C//DTD SVG 20010904//EN"
 "http://www.w3.org/TR/2001/REC-SVG-20010904/DTD/svg10.dtd">
<svg version="1.0" xmlns="http://www.w3.org/2000/svg"
 width="401.000000pt" height="401.000000pt" viewBox="0 0 401.000000 401.000000"
 preserveAspectRatio="xMidYMid meet">
<metadata>
Created by potrace 1.11, written by Peter Selinger 2001-2013
</metadata>
<g transform="translate(0.000000,401.000000) scale(0.100000,-0.100000)"
fill="#000000" stroke="none">
<path d="M1778 3998 c-27 -6 -48 -13 -48 -17 0 -4 -9 -7 -20 -8 -24 -2 -142
-54 -151 -66 -3 -5 -8 -7 -10 -6 -4 3 -88 -52 -122 -81 -43 -35 -117 -112
-117 -121 0 -6 -4 -7 -10 -4 -5 3 -10 -1 -10 -9 0 -8 -6 -21 -13 -28 -31 -33
-82 -124 -79 -140 1 -5 -2 -8 -6 -8 -7 0 -35 -63 -37 -82 0 -3 -3 -10 -8 -14
-4 -4 -7 -18 -7 -31 0 -13 -3 -22 -8 -19 -4 2 -8 -12 -10 -32 -5 -78 -7 -92
-12 -92 -8 0 -4 -190 5 -236 4 -22 7 -40 7 -41 -1 -7 38 -132 49 -158 7 -16
12 -33 11 -37 -1 -5 3 -8 8 -8 5 0 9 -3 8 -7 -2 -11 25 -67 37 -75 5 -4 6 -8
1 -8 -5 0 1 -8 12 -19 12 -10 19 -20 16 -23 -3 -3 34 -46 83 -95 85 -86 171
-152 243 -185 75 -35 130 -57 130 -51 0 3 7 0 15 -7 8 -7 15 -10 15 -6 0 3 12
1 27 -5 14 -5 51 -12 82 -15 31 -3 61 -7 67 -9 9 -3 12 -155 11 -564 0 -309
-1 -561 -2 -561 -1 0 -20 17 -42 38 -22 20 -72 66 -112 102 -40 36 -85 76
-101 90 -15 14 -60 54 -100 90 -40 36 -95 86 -123 111 l-49 46 -3 124 c-2 127
-16 197 -56 294 -12 28 -28 58 -37 68 -8 9 -12 17 -8 17 4 0 -14 26 -39 58
-56 70 -93 112 -99 112 -3 0 -20 14 -38 30 -68 62 -252 136 -363 145 -87 8
-122 8 -133 1 -7 -4 -12 -2 -12 6 0 8 -3 9 -8 3 -4 -6 -24 -11 -45 -11 -44 -2
-83 -20 -92 -42 -13 -35 -17 -211 -5 -280 6 -39 11 -74 11 -77 -1 -3 6 -19 14
-35 9 -17 13 -30 10 -30 -5 0 40 -92 72 -144 58 -96 219 -242 259 -235 4 0 10
-4 13 -9 11 -17 102 -54 166 -67 75 -16 97 -17 199 -17 98 0 112 -3 131 -22
12 -11 57 -52 100 -91 44 -38 86 -77 95 -85 9 -8 54 -49 100 -90 47 -41 105
-94 130 -116 25 -23 57 -52 71 -65 15 -13 43 -38 62 -56 l35 -32 -2 -408 -1
-408 -320 0 c-226 -1 -326 -4 -341 -13 -32 -17 -37 -60 -9 -88 l23 -23 706 0
706 0 20 26 c22 28 19 56 -6 83 -12 12 -65 15 -333 15 l-319 0 1 185 1 185 34
30 c18 16 48 44 67 60 18 17 58 53 90 80 31 28 79 71 106 97 27 26 49 45 49
42 0 -2 20 16 45 42 25 25 45 43 45 41 0 -3 22 16 49 42 91 86 131 120 131
114 0 -4 5 -2 12 5 6 6 17 8 27 3 25 -13 247 -1 271 14 6 3 20 8 32 10 13 3
32 9 43 14 11 5 38 17 60 26 98 43 193 120 260 210 17 22 36 46 43 53 6 7 12
19 12 27 0 7 4 15 9 17 5 2 11 10 13 18 2 8 7 18 11 21 5 3 10 12 11 20 2 8 6
21 9 29 30 75 41 145 41 265 1 196 -1 199 -125 211 -197 19 -361 -24 -523
-135 -47 -33 -133 -121 -162 -166 -10 -16 -21 -32 -24 -35 -12 -9 -69 -135
-74 -160 -2 -14 -8 -36 -14 -50 -5 -14 -8 -33 -7 -43 2 -9 0 -17 -4 -17 -3 0
-7 -54 -8 -120 0 -87 2 -118 11 -114 6 3 2 -1 -8 -10 -23 -19 -126 -109 -175
-154 -20 -18 -60 -54 -89 -80 -29 -26 -73 -66 -97 -89 -25 -24 -47 -43 -49
-43 -3 0 -25 -20 -49 -45 -24 -24 -47 -42 -51 -38 -3 3 -6 1 -6 -5 0 -7 -4
-12 -8 -12 -5 0 -8 352 -8 783 l1 782 30 3 c66 7 187 43 257 76 40 19 86 39
101 45 15 6 27 15 27 21 0 5 4 10 10 10 5 0 22 10 37 23 48 39 174 167 166
167 -4 0 -3 4 2 8 20 14 65 81 65 96 0 9 5 16 10 16 6 0 10 6 10 13 0 7 9 29
20 50 11 20 20 41 20 46 0 5 5 22 12 38 6 15 11 31 10 35 -1 4 2 18 7 31 34
89 32 303 -4 423 -8 26 -12 51 -9 56 3 4 0 8 -5 8 -6 0 -11 8 -11 18 0 9 -9
32 -20 50 -11 17 -17 32 -14 32 3 0 -4 13 -15 29 -12 16 -21 32 -21 36 0 15
-89 132 -136 179 -53 53 -165 136 -183 136 -6 0 -11 3 -11 8 0 4 -12 12 -27
19 -59 26 -88 36 -95 35 -5 -1 -8 2 -8 6 0 5 -6 9 -12 10 -7 0 -40 8 -73 16
-69 18 -349 20 -427 4z m-1003 -1668 c3 -4 16 -6 30 -5 14 2 25 -1 25 -6 0 -6
5 -7 10 -4 6 4 16 3 23 -2 7 -5 30 -15 52 -22 57 -20 152 -86 208 -145 26 -28
47 -54 47 -58 0 -3 6 -13 14 -21 24 -24 73 -130 82 -177 9 -53 11 -59 14 -62
8 -8 5 -180 -3 -185 -35 -22 -307 12 -307 38 0 5 -7 6 -15 3 -8 -4 -15 -1 -15
5 0 6 -7 11 -16 11 -19 0 -134 77 -134 90 0 6 -5 10 -10 10 -15 0 -69 62 -70
79 0 8 -3 11 -7 8 -3 -4 -11 3 -18 16 -7 12 -21 38 -33 58 -44 78 -63 155 -66
267 -3 109 1 114 105 111 44 -1 82 -5 84 -9z m2579 -444 c7 3 24 0 38 -5 25
-9 26 -11 23 -103 -1 -52 -4 -99 -8 -104 -3 -6 -9 -24 -12 -40 -8 -39 -10 -44
-25 -79 -7 -16 -13 -33 -12 -37 1 -5 -2 -8 -7 -8 -5 0 -14 -13 -21 -30 -7 -16
-17 -30 -22 -30 -5 0 -6 -4 -3 -10 3 -5 2 -10 -4 -10 -5 0 -22 -18 -38 -40
-15 -22 -31 -40 -35 -40 -4 0 -19 -11 -34 -24 -51 -46 -64 -56 -64 -50 0 4 -6
1 -13 -5 -28 -23 -160 -70 -215 -77 -88 -12 -165 -7 -178 11 -12 16 -11 142 1
199 34 161 147 320 282 397 32 18 60 35 63 38 3 3 16 8 30 10 14 1 28 8 32 15
4 6 8 8 8 4 0 -4 11 -3 25 2 13 5 52 11 86 14 34 3 64 7 67 11 3 3 10 1 15 -4
5 -5 15 -7 21 -5z"/>
<path d="M667 2246 c-3 -8 1 -22 8 -33 19 -24 18 -38 -1 -57 -8 -9 -17 -24
-19 -33 -2 -10 -4 -22 -6 -28 -2 -5 0 -28 4 -50 9 -54 74 -121 100 -103 1 1
12 -4 25 -11 12 -6 22 -8 22 -3 0 4 14 9 32 10 17 2 36 6 42 11 6 5 19 7 29 6
9 -2 17 2 17 8 0 5 3 8 6 4 3 -3 22 0 42 7 52 17 76 14 106 -11 40 -35 36 -85
-11 -131 -21 -20 -43 -38 -49 -39 -6 -1 -23 -4 -38 -7 -14 -3 -26 -1 -26 3 0
13 -48 31 -65 25 -28 -11 -11 -50 32 -72 34 -18 104 -14 137 7 29 19 29 19 58
-2 29 -21 30 -21 43 -4 11 16 11 23 -6 52 -18 30 -18 34 -4 48 17 18 21 102 5
112 -6 4 -8 11 -5 16 4 5 2 9 -4 9 -5 0 -12 8 -15 18 -3 9 -20 23 -38 31 -35
16 -98 23 -98 11 0 -4 -11 -6 -25 -5 -14 2 -25 0 -25 -4 0 -4 -6 -8 -12 -8 -7
-1 -40 -8 -73 -17 -79 -21 -92 -20 -120 9 -33 32 -32 77 1 120 40 53 88 65
144 36 l38 -20 19 21 c10 12 12 18 6 14 -8 -4 -13 -2 -13 7 0 38 -105 68 -151
43 -23 -12 -29 -11 -50 5 -29 22 -55 24 -62 5z"/>
<path d="M3068 1748 c-16 -5 -28 -14 -28 -19 0 -6 -4 -8 -9 -4 -5 3 -12 -4
-16 -15 -3 -11 -10 -20 -15 -20 -20 0 -22 -74 -5 -151 10 -44 21 -79 25 -79 3
0 7 -14 8 -31 1 -16 3 -33 3 -37 5 -33 -5 -55 -32 -71 -17 -10 -38 -18 -47
-16 -10 2 -22 4 -29 4 -17 1 -73 60 -73 77 0 8 -5 14 -11 14 -14 0 -5 46 16
89 15 28 15 35 4 42 -19 12 -23 11 -46 -9 -36 -31 -49 -105 -25 -148 6 -12 8
-24 5 -28 -3 -3 -1 -6 5 -6 18 0 14 -24 -8 -50 -16 -19 -17 -24 -5 -36 18 -19
32 -18 56 5 21 19 21 19 55 -1 24 -14 34 -16 34 -7 0 9 3 10 11 2 18 -18 78 3
115 41 44 45 47 82 14 196 -40 136 -40 147 -13 176 39 42 83 40 135 -6 37 -32
43 -43 43 -78 0 -24 -7 -48 -18 -60 -10 -10 -15 -26 -11 -35 8 -21 36 -31 45
-15 4 7 16 23 27 35 15 17 18 35 16 74 -2 28 -7 56 -13 63 -7 9 -3 19 13 37
18 19 21 30 14 42 -12 23 -33 21 -58 -5 -11 -12 -20 -17 -20 -12 0 15 -64 45
-101 49 -19 1 -46 -2 -61 -7z"/>
</g>
</svg>
